<svg xmlns="http://www.w3.org/2000/svg" viewBox="0 0 1440 720" role="img" aria-labelledby="title desc" data-design-system="ui-ux-pro-max" data-visual-version="3"><title id="title">Automated Test Matrix</title><desc id="desc">Linux, public Windows, performance evidence, and licensed preflight remain distinct.</desc><style>.t{font-family:Inter,"Segoe UI",Arial,sans-serif;fill:#F8FAFC}.m{font-family:"JetBrains Mono",Consolas,monospace;fill:#A7B7CA}.e{font-family:Inter,"Segoe UI",Arial,sans-serif;font-size:12px;font-weight:700;letter-spacing:2.2px;fill:#22D3EE}.h{font-family:Inter,"Segoe UI",Arial,sans-serif;font-size:32px;font-weight:700;fill:#F8FAFC}.s{font-family:Inter,"Segoe UI",Arial,sans-serif;font-size:15px;font-weight:500;fill:#A7B7CA}.l{font-family:Inter,"Segoe UI",Arial,sans-serif;font-size:16px;font-weight:700;fill:#F8FAFC}.b{font-family:Inter,"Segoe UI",Arial,sans-serif;font-size:14px;font-weight:500;fill:#A7B7CA}.x{font-family:Inter,"Segoe UI",Arial,sans-serif;font-size:12px;font-weight:600;fill:#71849B}.c{font-family:"JetBrains Mono",Consolas,monospace;font-size:13px;font-weight:600;fill:#A7B7CA}.v{font-family:"JetBrains Mono",Consolas,monospace;font-size:21px;font-weight:700;fill:#F8FAFC}.p{fill:#0D1524;stroke:#23344E;stroke-width:1.2}.q{fill:#121E30;stroke:#334A6B;stroke-width:1.2}</style><rect width="1440" height="720" rx="28" fill="#050A12"/><path d="M52 132H1388" stroke="#334A6B"/><path d="M52 132H520" stroke="#22D3EE" stroke-width="2"/><text x="52" y="46" class="e">QUALITY GATES</text><text x="52" y="86" class="h">Automated Test Matrix</text><text x="52" y="112" class="s">Historical green runs never substitute for current-HEAD evidence.</text><rect x="52" y="184" width="1336" height="72" rx="14" class="p"/><rect x="52" y="184" width="8" height="72" rx="4" fill="#22C55E"/><text x="84" y="214" class="l">Linux CI</text><text x="374" y="214" class="c">3.11 · 3.12 · 3.13</text><text x="700" y="214" class="b">Ruff · mypy · pytest · coverage · build</text><text x="1330" y="214" class="c" text-anchor="end">CURRENT ARTIFACT REQUIRED</text><rect x="52" y="276" width="1336" height="72" rx="14" class="p"/><rect x="52" y="276" width="8" height="72" rx="4" fill="#60A5FA"/><text x="84" y="306" class="l">Public Windows</text><text x="374" y="306" class="c">3.12 · windows-2025</text><text x="700" y="306" class="b">IPC · Job Object · Fake COM · governance</text><text x="1330" y="306" class="c" text-anchor="end">CURRENT ARTIFACT REQUIRED</text><rect x="52" y="368" width="1336" height="72" rx="14" class="p"/><rect x="52" y="368" width="8" height="72" rx="4" fill="#22D3EE"/><text x="84" y="398" class="l">Performance</text><text x="374" y="398" class="c">3.12 · ubuntu-24.04</text><text x="700" y="398" class="b">baseline/candidate · operation counts · query plan</text><text x="1330" y="398" class="c" text-anchor="end">CURRENT ARTIFACT REQUIRED</text><rect x="52" y="460" width="1336" height="72" rx="14" class="p"/><rect x="52" y="460" width="8" height="72" rx="4" fill="#F59E0B"/><text x="84" y="490" class="l">Licensed Gate</text><text x="374" y="490" class="c">guard → licensed Windows</text><text x="700" y="490" class="b">SHA binding · software gate · real COM</text><text x="1330" y="490" class="c" text-anchor="end">CURRENT ARTIFACT REQUIRED</text><rect x="52" y="626" width="1336" height="46" rx="12" fill="#121E30" stroke="#F43F5E"/><text x="720" y="655" class="c" text-anchor="middle">missing evidence = INCOMPLETE · failure/error = FAIL</text></svg>